<svg height="512" viewBox="0 0 61 60" width="512" xmlns="http://www.w3.org/2000/svg"><g id="Page-1" fill="none" fill-rule="evenodd"><g id="003---Quill" fill="rgb(0,0,0)" fill-rule="nonzero"><path id="Shape" d="m59.263.035c-.3808966-.10372057-.7871657.02634821-1.037.332-6.436 7.866-13.983 7.694-21.965 7.508-2.415-.054-4.9-.1-7.4.067-.05522-.00135417-.1104485.00232773-.165.011-.264.018-.527.027-.79.051-3.8781606.34445809-7.6471598 1.46679138-11.082 3.3-.0805311.0296005-.156845.0696065-.227.119-6.0385275 3.2404289-10.55139961 8.7363918-12.555 15.29-1.72534659 5.8639457-1.19639715 12.1610478 1.483 17.655-.313.5-.726 1.13-1.357 2.077-2.50695935 3.7272416-3.94816117 8.0684818-4.168 12.555 0 .5522847.44771525 1 1 1h10c.5522847 0 1-.4477153 1-1s-.4477153-1-1-1h-7.586l3.293-3.293c.1789814-.1785834.28367198-.4183355.293-.671.14893302-2.4985867.47474914-4.9834777.975-7.436 1.93194152.7866887 4.0000729 1.1846154 6.086 1.171 6.0078044-.0235477 11.5838584-3.1262211 14.771-8.219 5.293-7.94 5.467-8.035 9.916-10.486 1.952-1.076 4.627-2.549 8.793-5.228 14.381-9.238 12.533-22.433 12.447-22.99-.0599077-.39039489-.343986-.7089545-.725-.813zm-54.242 53.53-2.708 2.707c.56601576-3.0543603 1.72850387-5.9672068 3.421-8.572-.34412351 1.9405826-.58214371 3.8984908-.713 5.865zm41.438-31.406-.073.046c-1.0129622-.1145296-1.9837329-.4701245-2.831-1.037-.4595009-.306518-1.0804819-.1825009-1.387.277-.306518.4595009-.1825009 1.080482.277 1.387.5107752.3345985 1.05629.6128881 1.627.83-2.786 1.721-4.767 2.816-6.29 3.655-1.8667875.8840628-3.5771671 2.0661972-5.064 3.5-1.7882239.2425084-3.6087486-.0028081-5.269-.71-.4937426-.2485281-1.0954718-.0497425-1.344.444-.2485281.4937426-.0497425 1.0954719.444 1.344 1.3931223.6514853 2.9130794.9868252 4.451.982-.881 1.177-1.929 2.721-3.32 4.8-2.5 1.106-6.044 2.019-9.234.427-.493494-.2412059-1.0891622-.039214-1.3341516.4524127-.2449894.4916268-.0475788 1.0888289.4421516 1.3375873 1.4514757.7171206 3.0510993 1.0832871 4.67 1.069 1.1134098-.0083639 2.2216246-.1527677 3.3-.43-4.2203245 4.9285519-11.1382833 6.5715873-17.124 4.067.206-.885.437-1.8.706-2.75 5.694-15.134 12.642-17.2 22.256-20.064 5.9814304-1.5757745 11.7397239-3.9012004 17.138-6.921.3254784-.1702629.5314125-.5052613.5363839-.8725499s-.1918202-.7077381-.5125711-.886748c-.3207508-.1790098-.7138237-.1677615-1.0238128.0292979-5.2618448 2.9376808-10.8726386 5.2011489-16.7 6.737-9.782 2.911-17.51 5.212-23.553 21.267l-.437.872-.07.14c-1.93104929-4.724508-2.20527571-9.9637132-.778-14.864.027-.089.063-.174.091-.263.24880504.8932823.62572017 1.7458043 1.119 2.531.30651804.4595009.92749908.583518 1.38699999.277.4595009-.306518.58351803-.9274991.27700001-1.387-.80210366-1.4669154-1.29907637-3.0809712-1.461-4.745 1.65446564-3.3347887 4.0643785-6.2374359 7.038-8.477-.9225736 2.1407949-1.4031856 4.4458954-1.413 6.777 0 .5522847.4477153 1 1 1s1-.4477153 1-1c.0409064-3.2082249 1.0354317-6.3317373 2.857-8.973 2.7061647-1.4328397 5.6379765-2.3910564 8.668-2.833-.5306069.7495138-1.0049073 1.5373404-1.419 2.357-.1607695.3193954-.1389312.7002985.0572886.9992267s.5370106.4704672.894.45c.3569893-.0204672.6759419-.2298313.8367114-.5492267.6437799-1.2756207 1.4505292-2.4622145 2.4-3.53 2.311-.137 4.646-.1 6.917-.044.8.019 1.605.036 2.409.046-.2408639.5979765-.439354 1.2121598-.594 1.838-.086101.3469049.0194099.7133926.2767879.9614107.2573779.2480181.627521.3398868.971.241.3434789-.0988868.6081111-.3735058.6942121-.7204107.1932862-.8048907.4805942-1.5842472.856-2.322 5.976-.091 11.936-1.069 17.249-6.4-.18 4.016-1.833 12.35-11.614 18.638z"/><path id="Shape" d="m47 60c.5522847 0 1-.4477153 1-1s-.4477153-1-1-1h-32c-.5522847 0-1 .4477153-1 1s.4477153 1 1 1z"/></g></g></svg>